/* XPM */
static char *pillar[] = {
/* columns rows colors chars-per-pixel */
"64 64 21 1 ",
"  c black",
". c #202020",
"X c #2C2C2C",
"o c gray22",
"O c gray25",
"+ c #484848",
"@ c #4C4C4C",
"# c gray33",
"$ c gray36",
"% c #646464",
"& c gray44",
"* c #7C7C7C",
"= c gray55",
"- c #989898",
"; c gray66",
": c #B4B4B4",
"> c #C0C0C0",
", c #D0D0D0",
"< c gainsboro",
"1 c #ECECEC",
"2 c gray99",
/* pixels */
"                                                                ",
"                                                                ",
"                                                                ",
"                                                                ",
"                                                                ",
"                                                                ",
"                                                                ",
"                                                                ",
"                                                                ",
"                                                                ",
"                                                                ",
"                                                                ",
"                                                                ",
"                                                                ",
"                                                                ",
"                                                                ",
"                                                                ",
"                                                                ",
"                                                                ",
"                                                                ",
"                                                                ",
"                                                                ",
"                                                                ",
"                                                                ",
"                                                                ",
"                                                                ",
"                                                                ",
"                                                                ",
"                                                                ",
"                                                                ",
"                                                                ",
"                                                                ",
"                                                                ",
"                                                                ",
"                                                                ",
"                                                                ",
"                                                                ",
"                                                                ",
"                                                                ",
"                                                                ",
"                                                                ",
"                                                                ",
"                                                                ",
"                                                                ",
"                     ;1:>,>  *&#%%      .....                   ",
"                     -,2122  <,>:=     #+o.XX                   ",
"                     ->2221 ,>:;-*    +OXO..X                   ",
"                     ->222,2,>-<-=    +OoX..X                   ",
"                     ->2221<,>:;-*   +#OoX..X                   ",
"                     ->2221<,>:;-=  #%+OoX..X                   ",
"                     ->2221<,>->-= %&#+OoX..X                   ",
"                     ->2221<,;<;-=*&%#O#oX..X                   ",
"                     ->122,2,>:;-=*&%#+                         ",
"                     ->122,2,>:;-=*&%+#                         ",
"                    :<>2221<,>:-:=*&%#+OoXo..X  22,2,           ",
"                   :1122221<,>:;-=*&%#+OXoX...XX221<,           ",
"                 >>212221122<<,>>;;-=*&%#OoX...XXXO+@##$$%%     ",
"                ><<2122111<<,,>>::;-=*&%#+OXo..XXXooO++@#OoX..X ",
"                <<1122211,,,>>::;;=;**&%%#O+XX..XXooooO++OoX..X ",
"                <112222221<,>>::;;-=**&%%&%@@oX.XXooooO++@#$$%  ",
"                 12222111222<<,>>::;--=**&$O$oo.XoooOO+@@#$$%   ",
"                  >22111<<<,,,>:,:;--=*=&%$+OooXOOO+++@#$$%     ",
"                    ;;<<,,,>>>::;;--==*&&%#+OO+#$$$%%%%%%       ",
"                         ;;;;=======&&&&%#OO+#$%%               "
};
