/* XPM */
static char *ennemi01[] = {
/* columns rows colors chars-per-pixel */
"64 64 112 2 ",
"   c #020202",
".  c gray1",
"X  c #03031B",
"o  c #03031C",
"O  c #202020",
"+  c gray19",
"@  c #313131",
"#  c #343434",
"$  c gray22",
"%  c #4C0303",
"&  c #640303",
"*  c #700303",
"=  c #7C0303",
"-  c #5C4020",
";  c #020240",
":  c #030340",
">  c #020241",
",  c #030341",
"<  c #02024C",
"1  c #03034C",
"2  c #04044C",
"3  c #030358",
"4  c #020264",
"5  c #030364",
"6  c #030370",
"7  c #03037C",
"8  c #034040",
"9  c #035757",
"0  c #035858",
"q  c #045858",
"w  c #037070",
"e  c #037474",
"r  c #037C7C",
"t  c gray25",
"y  c #4B4B4B",
"u  c #4C4C4C",
"i  c #535353",
"p  c gray33",
"a  c #646464",
"s  c #656565",
"d  c gray44",
"f  c #880303",
"g  c #980303",
"h  c #A40303",
"j  c #A80303",
"k  c #B00303",
"l  c #BC0303",
"z  c #D40303",
"x  c #E00202",
"c  c #E00303",
"v  c #FC0303",
"b  c #80502C",
"n  c #905C34",
"m  c #A0643C",
"M  c #FC7803",
"N  c #A86840",
"B  c #B47044",
"V  c #BC7848",
"C  c #B4AC03",
"Z  c #B5AC03",
"A  c #FC8820",
"S  c #CCC303",
"D  c #CCC402",
"F  c #CCC403",
"G  c #FCF302",
"H  c #FCF403",
"J  c #FCF503",
"K  c #D08050",
"L  c #DC8854",
"P  c #FC9840",
"I  c #E88C58",
"U  c #F0945C",
"Y  c #FCA85C",
"T  c #FC9C60",
"R  c #FCA470",
"E  c #030387",
"W  c #020288",
"Q  c #030388",
"!  c #020289",
"~  c #030397",
"^  c #030398",
"/  c #0202A4",
"(  c #0303A4",
")  c #0303A8",
"_  c #0303AF",
"`  c #0202B0",
"'  c #0303B0",
"]  c #0303BC",
"[  c #0303C8",
"{  c #0303D4",
"}  c #0303E0",
"|  c #0303FC",
" . c #980387",
".. c #970388",
"X. c #980388",
"o. c #990388",
"O. c #990389",
"+. c #038484",
"@. c #038C8C",
"#. c #039C9C",
"$. c #03A8A8",
"%. c #74C8C8",
"&. c #979797",
"*. c #989898",
"=. c #FCB080",
"-. c #FCB890",
";. c #FCBC9C",
":. c #FCC4A4",
">. c #C0C0C0",
",. c gainsboro",
"<. c #D8F4F4",
"1. c None",
/* pixels */
"1.1.1.1.1.1.1.1.1.1.1.1.1.1.1.1.1.1.1.1.1.1.1.1.1.1.1.1.1.1.1.1.1.1.1.1.1.1.1.1.1.1.1.1.1.1.1.1.1.1.1.1.1.1.1.1.1.1.1.1.1.1.1.1.",
"1.1.1.1.1.1.1.1.1.1.1.1.1.1.1.1.1.1.1.1.1.1.1.1.1.1.1.1.1.1.1.1.1.1.1.1.1.1.1.1.1.1.1.1.1.1.1.1.1.1.1.1.1.1.1.1.1.1.1.1.1.1.1.1.",
"1.1.1.1.1.1.1.1.1.1.1.1.1.1.1.1.1.1.1.1.1.1.1.1.1.1.1.1.1.1.1.1.1.1.1.1.1.1.1.1.1.1.1.1.1.1.1.1.1.1.1.1.1.1.1.1.1.1.1.1.1.1.1.1.",
"1.1.1.1.1.1.1.1.1.1.1.1.1.1.1.1.1.1.1.1.1.1.1.1.1.1.1.1.1.J G J F F F S 1.1.1.1.1.1.1.1.1.1.1.1.1.1.1.1.1.1.1.1.1.1.1.1.1.1.1.1.",
"1.1.1.1.1.1.1.1.1.1.1.1.1.1.1.1.1.1.1.1.1.1.1.1.1.1.1.R U U U U U U U U U U 1.1.1.1.1.1.1.1.1.1.1.1.1.1.1.1.1.1.1.1.1.1.1.1.1.1.",
"1.1.1.1.1.1.1.1.1.1.1.1.1.1.1.1.1.1.1.1.1.1.1.1.1.1.P R R R R U U U R R R U P 1.1.1.1.1.1.1.1.1.1.1.1.1.1.1.1.1.1.1.1.1.1.1.1.1.",
"1.1.1.1.1.1.1.1.1.1.1.1.1.1.1.1.1.1.1.1.1.1.1.1.1.C P R b V I R R R I V b U U C 1.1.1.1.1.1.1.1.1.1.1.1.1.1.1.1.1.1.1.1.1.1.1.1.",
"1.1.1.1.1.1.1.1.1.1.1.1.1.1.1.1.1.1.1.1.1.1.1.1.1.M R B K n b I K m b n B B U M 1.1.1.1.1.1.1.1.1.1.1.1.1.1.1.1.1.1.1.1.1.1.1.1.",
"1.1.1.1.1.1.1.1.1.1.1.1.1.1.1.1.1.1.1.1.1.1.1.1.1.A R L =.=.R R T V I =.=.m U A 1.1.1.1.1.1.1.1.1.1.1.1.1.1.1.1.1.1.1.1.1.1.1.1.",
"1.1.1.1.1.1.1.1.1.1.1.1.1.1.1.1.1.1.1.1.1.1.1.1.1.A R -.:.:.=.K K m R ;.;.=.U A 1.1.1.1.1.1.1.1.1.1.1.1.1.1.1.1.1.1.1.1.1.1.1.1.",
"1.1.1.1.1.1.1.1.1.1.1.1.1.1.1.1.1.1.1.1.1.1.1.1.1.P R -.v =.U R R R U v U R U P 1.1.1.1.1.1.1.1.1.1.1.1.1.1.1.1.1.1.1.1.1.1.1.1.",
"1.1.1.1.1.1.1.1.1.1.1.1.1.1.1.1.1.1.1.1.1.1.1.1.1.Y R I T z j ,.,.v >.R U L K Y 1.1.1.1.1.1.1.1.1.1.1.1.1.1.1.1.1.1.1.1.1.1.1.1.",
"1.1.1.1.1.1.1.1.1.1.1.1.1.1.1.1.1.1.1.1.1.1.1.1.1.L T I T v % d >.z f R v B K B n 1.1.1.1.1.1.1.1.1.1.1.1.1.1.1.1.1.1.1.1.1.1.1.",
"1.1.1.1.1.1.1.1.1.1.1.1.1.1.1.1.1.1.1.1.1.1.1.1.O.L T I T R :.:.R R T R U B K B c 1.1.1.1.1.1.1.1.1.1.1.1.1.1.1.1.1.1.1.1.1.1.1.",
"1.1.1.1.1.1.1.1.1.1.1.1.1.1.1.1.1.1.1.1.1.1.1.. $ L T R R R R I K I R R c L B n . 1.1.1.1.1.1.1.1.1.1.1.1.1.1.1.1.1.1.1.1.1.1.1.",
"1.1.1.1.1.1.1.1.1.1.1.1.1.1.1.1.1.1.1.1.1.1.. . . . n L K B n n n v n m B B b n . 1.1.1.1.1.1.1.1.1.1.1.1.1.1.1.1.1.1.1.1.1.1.1.",
"1.1.1.1.1.1.1.1.1.1.1.1.1.1.1.1.1.1.1.1.1.1.. . O . n n n n n N K & n n n n n c . 1.1.1.1.1.1.1.1.1.1.1.1.1.1.1.1.1.1.1.1.1.1.1.",
"1.1.1.1.1.1.1.1.1.1.1.1.1.1.1.1.Q Q Q Q p p . . O . . m I B B j I K % b b n c . . p ,.: > Q Q E 1.1.1.1.1.1.1.1.1.1.1.1.1.1.1.1.",
"1.1.1.1.1.1.1.1.1.1.1.1.` | { ` ) Q . 5 6 6 5 . O . . 5 b N N I & j b & b & 1 5 . : : 6 6 . Q ) ' { | _ 1.1.1.1.1.1.1.1.1.1.1.1.",
"1.1.1.1.1.1.1.1.1.1.Q ' [ [ ] ) ` . 5 Q ( ( 6 5 . . 1 5 6 6 6 - - & & k : . . : 6 Q Q Q Q 7 . ' ) ] [ [ ` Q 1.1.1.1.1.1.1.1.1.1.",
"1.1.1.1.1.1.1.1.1.Q Q ) ) ) ( [ 7 : ( ) ) ) ) ) ) ) ) k k 7 5 1 1 1 % f 6 j Q ) ) ) ) Q ) ) 7 7 [ ( ) ) ) Q Q 1.1.1.1.1.1.1.1.1.",
"1.1.1.1.1.1.1.1.Q Q Q ( ( ( ] | . 5 Q ) ) p p ) ) ) ) j = ) ) ) & 6 5 ) ) f ) ) ) ) ) ) p ) 7 . | ] ( ( ( Q Q Q 1.1.1.1.1.1.1.1.",
"1.1.1.1.1.1.1.] ' ( 7 5 5 5 5 5 . 6 7 7 7 7 7 7 7 7 7 7 7 7 = 5 1 1 5 Q 7 6 7 7 7 7 7 7 7 l 7 . 5 5 5 5 5 7 ( ' ] 1.1.1.1.1.1.1.",
"1.1.1.1.1.1.Q Q 5 : : : : : : : . 6 6 7 7 6 6 a $ 6 6 6 6 6 6 6 1 6 Q 6 6 = 6 6 6 1 *.1 7 % 7 . : : : : : : : 5 Q Q 1.1.1.1.1.1.",
"1.1.1.1.1.1.6 > . . . . . . . . . 2 < 6 6 7 6 : : 6 j 6 6 % % 6 1 z f 6 6 6 6 z 6 5 : 5 7 7 6 5 : : . . . . . . : 6 1.1.1.1.1.1.",
"1.1.1.1.1.1.7 ( ' ( ( Q 6 5 5 . . . : : : 1 1 6 j 7 7 j z 7 5 f 1 f * 6 Q 7 7 7 7 7 7 h 6 6 5 : : . 6 7 ) } Q 6 . < 1.1.1.1.1.1.",
"1.1.1.1.1.1.5 o : 6 6 5 5 : 5 1 . % f . : : : j : j j f % z : : 1 1 1 g 1 1 k : : : : h : : : : . 1 o . : : : . 5 1.1.1.1.1.1.1.",
"1.1.1.1.1.> o Q ( ( ( Q 5 1 : 5 . . . . . . : : : f % : f f % f : : 1 1 z 1 f f k : : : : : . . : . 1 6 6 ] Q : : 1.1.1.1.1.1.1.",
"1.1.1.1.1.o a Q ( ( ( 7 5 1 : 1 . . . % f % . . . . . % % = % . % % & 1 1 f & k % . . % . . % . o 5 6 6 ] } ' Q 1 1.1.1.1.1.1.1.",
"1.1.1.1.1.5 o 5 o o o 8 e @.#.#.@.r 0 . . % % & O l % $ % f $ % . f f 1 % % & . % & % % % . & % 5 5 5 : Q { { 5 o > 1.1.1.1.1.1.",
"1.1.1.1.1.5 a o 5 7 7 q #.+.0 O O O O 8 . % & + + $ t & % & # # O $ f f k % % l z $ + + z . . : 5 : ( ' ] ] } } ' : 1.1.1.1.1.1.",
"1.1.1.1.1.< o 5 6 : 8 e O 8 8 $.q O w w 8 O O + t t & % $ $ $ l O # # # p $ $ $ $ $ + + O . . 1.5 ( : . . . . . . ] 1.1.1.1.1.1.",
"1.1.1.1.1.o 7 : o : 8 O O 0 #.<.#.e O w %.8 O O O # # l # # # # # # # + # j # # # O O O O . 1.1.: : . : 6 6 5 : . : > 1.1.1.1.1.",
"1.1.1.1.1.1 7 o 5 Q 8 8 0 8 O 0 +.e O 0 +.e 8 O O + + # # # # # # # # # z # # # + O O O O . 1.1.: . Q | | ( 6 5 5 . 1.1.1.1.1.1.",
"1.1.1.1.1.( o : 7 ( O e e O 8 . . . 8 . . . O O + # t t u u u u u u u t 5 Q ' ) Q 6 5 Q ( ] 5 1.: L [ | [ ' 7 5 5 : 1.1.1.1.1.1.",
"1.1.1.1.1.( o 1 5 Q O 0 O O 8 $ . $ 8 $ . $ O O 1 7 7 7 7 1 . + + + . [ ' 6 6 5 5 5 : : 1 5 ) 1.B b 5 [ ' ' ' 7 5 > 1.1.1.1.1.1.",
"1.1.1.1.1.1.o 7 1 1 1 O O 8 8 8 +.O O 8 +.8 8 O O . . . 1 1 7 1 . . 5 1 5 7 1 1 1 . 6 5 1 : 1 5 5 5 L B Q ` ' ' 5 1.1.1.1.1.1.1.",
"1.1.1.1.1.1.1.2 7 1 1 O 0 . . e 8 0 . e 8 0 . e O 5 1 1 1 o 1 5 . 5 1 5 . . % f 1 . Q 7 5 1 : : 1.: b N B Q ) ) Q 1.1.1.1.1.1.1.",
"1.1.1.1.1.1.1.1.1.7 7 O 0 . . +.8 . . . 8 . . . O 5 1 1 : : o . . 1 5 . 5 % f % f . Q 7 6 5 1 : 1.1.> b m m Q Q 5 1.1.1.1.1.1.1.",
"1.1.1.1.1.1.1.1.1.1.1 O 8 $ $ 0 O +.$ e O +.$ e O 5 1 : : : : . . p 5 6 . % k f . . Q 7 6 5 1 : 1.1.1.q w w w q 0 1.1.1.1.1.1.1.",
"1.1.1.1.1.1.1.1.1.1.1.O O O 8 e +.O 8 e +.O O O 5 1 1 : : : Q *.. p 5 6 Q % % . Q Q Q 7 6 5 1 : 1.1.0 0 e e e w 0 1.1.1.1.1.1.1.",
"1.1.1.1.1.1.1.1.1.1.1.1.O O 0 . . +.0 . . +.O O 1 1 1 : : : + d . : 5 6 Q & ( ) ) ( Q Q 7 5 5 : 1.8 8 0 w w w w 0 1.1.1.1.1.1.1.",
"1.1.1.1.1.1.1.1.1.1.1.1.1.1.0 . . +.0 . . +.O 5 1 1 : : : : 1 . . 1 5 6 Q k % ) ) ( Q Q 7 5 5 : a 8 8 0 0 0 0 0 0 q 1.1.1.1.1.1.",
"1.1.1.1.1.1.1.1.1.1.1.1.1.1.1.1.0 O O +.0 O 6 5 1 1 : : : : o . . *.5 6 % 5 [ | | | | | [ 1 5 : u 8 8 8 0 0 0 0 0 9 1.1.1.1.1.1.",
"1.1.1.1.1.1.1.1.1.1.1.1.1.1.1.1.1.1.( ( Q 6 5 5 1 1 : : : Q *.. . 1 5 6 { ) { Q Q 7 6 5 { ] 7 : O # 8 8 8 q 0 0 8 8 1.1.1.1.1.1.",
"1.1.1.1.1.1.1.1.1.1.1.1.1.1.1.1.1.1.( ( 6 6 5 1 1 1 : : : + d . 1.. 7 | 6 6 ( ] ] ] ] ] Q 5 7 7 O # # 8 8 8 8 8 8 1.1.1.1.1.1.1.",
"1.1.1.1.1.1.1.1.1.1.1.1.1.1.1.1.1.1.( Q 6 6 5 1 1 : : : : 1 . . 1.1.) 5 6 6 7 Q Q 7 6 5 5 5 1 : O O # # 8 8 8 + + 1.1.1.1.1.1.1.",
"1.1.1.1.1.1.1.1.1.1.1.1.1.1.1.1.1.1.Q 6 6 6 5 1 1 : : : : . . 1.1.1.1 5 6 ) ' ] ' ) ( 6 6 6 : : . O O O O O + + 1.1.1.1.1.1.1.1.",
"1.1.1.1.1.1.1.1.1.1.1.1.1.1.1.1.1.. 7 7 7 7 ) ' 6 . . : . . . 1.1.1.1 6 5 1 1 1 1 1 : : : : 5 : . . O O O O 1.1.1.1.1.1.1.1.1.1.",
"1.1.1.1.1.1.1.1.1.1.1.1.1.1.1.1.1.1.7 5 5 5 5 5 7 ) 7 Q . . o 1.1.1.1.: 5 6 Q ( ( Q 7 5 5 : : . . . . . O 1.1.1.1.1.1.1.1.1.1.1.",
"1.1.1.1.1.1.1.1.1.1.1.1.1.1.1.1.1.1.5 7 7 7 7 7 : : : . . . o 1.1.1.1.1 5 6 Q ( ( Q 7 5 5 5 : ..1.. 1.1.1.1.1.1.1.1.1.1.1.1.1.1.",
"1.1.1.1.1.1.1.1.1.1.1.1.1.1.1.1.1.1.1.: : : : : o o . . . . . 1.1.1.1.5 5 6 Q ( ( Q 7 5 5 1 1 1.1.1.1.1.1.1.1.1.1.1.1.1.1.1.1.1.",
"1.1.1.1.1.1.1.1.1.1.1.1.1.1.1.1.1.1.1.1.. . . . . . . . . . . 1.1.1.1.&.5 6 Q ( ( Q 7 5 5 1 2 1.1.1.1.1.1.1.1.1.1.1.1.1.1.1.1.1.",
"1.1.1.1.1.1.1.1.1.1.1.1.1.1.1.1.1.1.1.1.1.: : : : . . . . . . : 1.1.1.i 5 6 Q ( ( Q 7 5 5 1 1.1.1.1.1.1.1.1.1.1.1.1.1.1.1.1.1.1.",
"1.1.1.1.1.1.1.1.1.1.1.1.1.1.1.1.1.1.1.1.1.1.: : . . . . . . . : 1.1.1.O.1 1 1 1 1 1 1 1 : : 1.1.1.1.1.1.1.1.1.1.1.1.1.1.1.1.1.1.",
"1.1.1.1.1.1.1.1.1.1.1.1.1.1.1.1.1.1.1.1.1.1.O.: : . . . . . . : 1.1.1. .1 7 ) ) ) 7 7 7 6 : 1.1.1.1.1.1.1.1.1.1.1.1.1.1.1.1.1.1.",
"1.1.1.1.1.1.1.1.1.1.1.1.1.1.1.1.1.1.1.1.1.1.1.5 5 : : : . . . : 1.1.1.o 7 ( ( 7 5 5 5 5 5 5 1.1.1.1.1.1.1.1.1.1.1.1.1.1.1.1.1.1.",
"1.1.1.1.1.1.1.1.1.1.1.1.1.1.1.1.1.1.1.1.1.1.( ( o o o o o o o : 1.1.1.: 7 ] ] ] ] ) ( Q 7 5 1 1.1.1.1.1.1.1.1.1.1.1.1.1.1.1.1.1.",
"1.1.1.1.1.1.1.1.1.1.1.1.1.1.1.1.1.1.1.1.1.1.6 5 5 5 5 5 1 : : : 1.1.1.: 7 ] ] ] ( 7 7 6 5 5 : O.1.1.1.1.1.1.1.1.1.1.1.1.1.1.1.1.",
"1.1.1.1.1.1.1.1.1.1.1.1.1.1.1.1.1.1.1.1.1.^ ^ 7 5 5 3 5 3 1 : : u 1.~ ^ ] ^ ^ 7 7 3 3 3 3 3 : $ u u u u u u y 1.1.1.1.1.1.1.1.1.",
"1.1.1.1.1.1.1.1.1.1.1.1.1.1.1.1.1.1.1.a a a p p p u u u u $ $ + + $ $ ^ ^ ^ 7 ^ ^ ^ Q Q 7 : $ $ $ $ $ $ $ $ u u p p a 1.1.1.1.1.",
"1.1.1.1.1.1.1.1.1.1.1.1.1.1.1.1.1.1.1.1.1.1.1.1.a a a p p u u $ + + + + : : : : : : : : : + + + + + + $ $ u u u p p a a a 1.1.1.",
"1.1.1.1.1.1.1.1.1.1.1.1.1.1.1.1.1.1.1.1.1.1.1.1.1.1.1.1.i p p u u u u $ $ $ $ + + + + + + + + + + $ $ u u u u p p a a a a 1.1.1.",
"1.1.1.1.1.1.1.1.1.1.1.1.1.1.1.1.1.1.1.1.1.1.1.1.1.1.1.1.1. .O.p p p p u u u u $ $ $ $ $ $ $ $ $ $ u u u u u p p a a O.1.1.1.1.1."
};
