/* XPM */
static char *enemi02[] = {
/* columns rows colors chars-per-pixel */
"64 64 79 1 ",
"  c #020202",
". c gray1",
"X c #03031C",
"o c #03032C",
"O c #030334",
"+ c #03033F",
"@ c #202020",
"# c #2C2C2C",
"$ c gray22",
"% c #400303",
"& c #4C0303",
"* c #580303",
"= c #590303",
"- c #640303",
"; c #7C0303",
": c #020240",
"> c #030340",
", c #020241",
"< c #02024C",
"1 c #03034C",
"2 c #03034D",
"3 c #030358",
"4 c #030364",
"5 c #030365",
"6 c #030370",
"7 c #03037C",
"8 c #034040",
"9 c #035858",
"0 c #037070",
"q c gray25",
"w c #484848",
"e c gray33",
"r c #646464",
"t c #717171",
"y c #880303",
"u c #980303",
"i c #B00303",
"p c #BC0303",
"a c #D40303",
"s c #E00303",
"d c #FC0303",
"f c #804F2C",
"g c #80502C",
"h c #9B6038",
"j c #9C6038",
"k c #9C6138",
"l c #A0633C",
"z c #A0643C",
"x c #B47044",
"c c #CDC403",
"v c #FCF403",
"b c #DC8854",
"n c #F0945C",
"m c #FCA36F",
"M c #FCA370",
"N c #FCA470",
"B c #FCA570",
"V c #020288",
"C c #030388",
"Z c #020297",
"A c #020298",
"S c #030398",
"D c #0202A4",
"F c #0303A4",
"G c #0303B0",
"H c #0303BB",
"J c #0202BC",
"K c #0303BC",
"L c #0303C8",
"P c #0202C9",
"I c #0305FC",
"U c #970288",
"Y c #980288",
"T c #980388",
"R c #990289",
"E c #990389",
"W c #038C8C",
"Q c #FCC4A4",
"! c None",
/* pixels */
"!!!!!!!!!!!!!!!!!!!!!!!!!!!!!!!!!!!!!!!!!!!!!!!!!!!!!!!!!!!!!!!!",
"!!!!!!!!!!!!!!!!!!!!!!!!!!!!!!!!!!!!!!!!!!!!!!!!!!!!!!!!!!!!!!!!",
"!!!!!!!!!!!!!!!!!!!!!!!!!!!!!!!!!!!!!!!!!!!!!!!!!!!!!!!!!!!!!!!!",
"!!!!!!!!!!!!!!!!!!!!!!!!!!!!!!!!!!!!!!!!!!!!!!!!!!!!!!!!!!!!!!!!",
"!!!!!!!!!!!!!!!!!!!!!!!!!!!!!!!!!!!!!!!!!!!!!!!!!!!!!!!!!!!!!!!!",
"!!!!!!!!!!!!!!!!!!!!!!!!!!!!!!!!!!!!!!!!!!!!!!!!!!!!!!!!!!!!!!!!",
"!!!!!!!!!!!!!!!!!!!!!!!!!!!!!!!!!!!!!!!!!!!!!!!!!!!!!!!!!!!!!!!!",
"!!!!!!!!!!!!!!!!!!!!!!!!!!!!!!!!!!!!!!!!!!!!!!!!!!!!!!!!!!!!!!!!",
"!!!!!!!!!!!!!!!!!!!!!!!!!!!!!!!!!!!!!!!!!!!!!!!!!!!!!!!!!!!!!!!!",
"!!!!!!!!!!!!!!!!!!!!!!!!!!!!!!!!!!!!!!!!!!!!!!!!!!!!!!!!!!!!!!!!",
"!!!!!!!!!!!!!!!!!!!!!!!!!!!!!!!!!!!!!!!!!!!!!!!!!!!!!!!!!!!!!!!!",
"!!!!!!!!!!!!!!!!!!!!!!!!!!!!!!!!!!!!!!!!!!!!!!!!!!!!!!!!!!!!!!!!",
"!!!!!!!!!!!!!!!!!!!!!!!!!!!!!!!!!!!!!!!!!!!!!!!!!!!!!!!!!!!!!!!!",
"!!!!!!!!!!!!!!!!!!!!!!!!!!!!!!!!!!!!!!!!!!!!!!!!!!!!!!!!!!!!!!!!",
"!!!!!!!!!!!!!!!!!!!!!!!!!!!!!!!!!!!!!!!!!!!!!!!!!!!!!!!!!!!!!!!!",
"!!!!!!!!!!!!!!!!!!!!!!!!!!!!!!!!!!!!!!!!!!!!!!!!!!!!!!!!!!!!!!!!",
"!!!!!!!!!!!!!!!!!!!!!!!!!!!!!!!!!!!!!!!!!!!!!!!!!!!!!!!!!!!!!!!!",
"!!!!!!!!!!!!!!!!!!!!!!!!!!!!!!!!!!!!!!!!!!!!!!!!!!!!!!!!!!!!!!!!",
"!!!!!!!!!!!!!!!!!!!!!!!!!!!!!!!!!!!!!!!!!!!!!!!!!!!!!!!!!!!!!!!!",
"!!!!!!!!!!!!!!!!!!!!!!!!!!!!!!!!!!!!!!!!!!!!!!!!!!!!!!!!!!!!!!!!",
"!!!!!!!!!!!!!!!!!!!!!!!!!!!!!!!!!!!!!!!!!!!!!!!!!!!!!!!!!!!!!!!!",
"!!!!!!!!!!!!!!!!!!!!!!!!!!!!!!!!!!!!!!!!!!!!!!!!!!!!!!!!!!!!!!!!",
"!!!!!!!!!!!!!!!!!!!!!!!!!!!!!!!!!!!!!!!!!!!!!!!!!!!!!!!!!!!!!!!!",
"!!!!!!!!!!!!!!!!!!!!!!!!!!!!!!!!!!!!!!!!!!!!!!!!!!!!!!!!!!!!!!!!",
"!!!!!!!!!!!!!!!!!!!!!!!!!!!!!!!!!!!!!!!!!!!!!!!!!!!!!!!!!!!!!!!!",
"!!!!!!!!!!!!!!!!!!!!!!!!!!!!!!!!!!!!!!!!!!!!!!!!!!!!!!!!!!!!!!!!",
"!!!!!!!!!!!!!!!!!!!!!!!!!!!!!!!!!!!!!!!!!!!!!!!!!!!!!!!!!!!!!!!!",
"!!!!!!!!!!!!!!!!!!!!!!!!!!!!!!!!!!!!!!!!!!!!!!!!!!!!!!!!!!!!!!!!",
"!!!!!!!!!!!!!!!!!!!!!!!!!!!!!!!!!!!!!!!!!!!!!!!!!!!!!!!!!!!!!!!!",
"!!!!!!!!!!!!!!!!!!!!!!!!!!!!!!!!!!!!!!!!!!!!!!!!!!!!!!!!!!!!!!!!",
"!!!!!!!!!!!!!!!!!!!!!!!!!!!!!!!!!!!!!!!!!!!!!!!!!!!!!!!!!!!!!!!!",
"!!!!!!!!!!!!!!!!!!!!!!!!!!!!!!!!!!!!!!!!!!!!!!!!!!!!!!!!!!!!!!!!",
"!!!!!!!!!!!!!!!!!!!!!!!!!!!!!!!!!!!!!!!!!!!!!!!!!!!!!!!!!!!!!!!!",
"!!!!!!!!!!!!!!!!!!!!!!!!!!!!!!!!!!!!!!!!!!!!!!!!!!!!!!!!!!!!!!!!",
"!!!!!!!!!!!!!!!!!!!!!!!!!!!!!!!!!!!!!!!!!!!!!!!!!!!!!!!!!!!!!!!!",
"!!!!!!!!!!!!!!!!!!!!!!!!!!!!!!!!!!!!!!!!!!!!!!!!!!!!!!!!!!!!!!!!",
"!!!!!!!!!!!!!!!!!!!!!!!!!!!!!!!!!!!!!!!!!!!!!!!!!!!!!!!!!!!!!!!!",
"!!!!!!!!!!!!!!!!!!!!!!!!!!!!!!!!!!!!!!!!!!!!!!!!!!!!!!!!!!!!!!!!",
"!!!!!!!!!!!!!!!!!!!!!!!!!!!!!!!!!!!!!!!!!!!!!!!!!!!!!!!!!!!!!!!!",
"!!!!!!!!!!!!!!!!!!!!!!!!!!!!!!!!!!!!!!!!!!!!!!!!!!!!!!!!!!!!!!!!",
"!!!!!!!!!!!!!!!!!!!!!!!!!!!!!!!!!!!!!!!!!!!!!!!!!!!!!!!!!!!!!!!!",
"!!!!!!!!!!!!!!!!!!!!!!!!!!!!!!!!!!!!!!!!!!!!!!!!!!!!!!!!!!!!!!!!",
"!!!!!!!!!!!!!!!!!!!!!!!!!!!!!!!!!!!!!!!!!!!!!!!!!!!!!!!!!!!!!!!!",
"!!!!!!!!!!!!!!!!!!!!!!!!!!!!!!!!!!!!!!!!!!!!!!!!!!!!!!!!!!!!!!!!",
"!!!!!!!!!!!!!!!!!!!!!!!!!!!!!!!!!!!!!!!!!!!!!!!!!!!!!!!!!!!!!!!!",
"!!!!!!!!!!!!!!!!!!!!!!!!!!!!!!vBMmc!!!!!!!!!!!!!!!!!!!!!!!!!!!!!",
"!!!!!!!!!!!!L!!!!!!!!!!!!!!BQQQnnnQQQ!!!!!!!!!!!!!!!!!!F!!!!!!!!",
"!!!!!!!!!!K33>>>CCR!!!!!!!ldddsssiiiiKFSSSSSSUURERSLC>>33Z!!!!!!",
"!!!!!!!!!43.....>>SSSSSdddi;;;i;;;s;;i;+15667SSSGSL>.....3!!!!!!",
"!!!!!!!!K........oO14sdi;;@@uaiiiiuu=@@@;;;>+.GGGGG.......4!!!!!",
"!!!!!!!K4GSSC33....di;;.@#qeedaaaaa*=eeeq#@;>GGG....CC666..3!!!!",
"!!!!!!!4S@@@@;43..;16-ypp1111y.yyy@*@>3CCC6GGG4.....4>>>>6.1!!!!",
"!!!!!!!C43FFC0WW666*--p6@@@..11@**.*466644GG5.......>6666... !!!",
"!!!!!!4337C;00#6>....>37CCC11...1%.414SFGGF+........CCCC.663>!!!",
"!!!!!!>@36780#6>.77GGppG7C311GGG.%>4475GSS1........34>>CIIG663!!",
"!!!!!!t13669#6>.77GG36GSGGG1GGGC.%>44GGGSS.........34obIIIGG63!!",
"!!!!!!!13449#6.>77G3G7S7CCCCGCC..%>44GGSS........ o>1xg3CCGGG3>!",
"!!!!!!!13339#6.37G3G7SSC7C3CGC6...44SG71.........>o>>X>bxkCGGC>!",
"!!!!!!!11338@6.37G>G1666663CG64...14SG1..........XXooX>gzxjCFC>!",
"!!!!!!!!1111@6.37G.71666663CG44...14S1..........>.XXXXX>gkjjC4!!",
"!!!!!!!!!!111>.37G.7.666663CG33....6S..........>..@XXXXX>fkh!!!!",
"!!!!!!!!!!!!!&&.66.C.444433C7O3....1S.........53&&&&&&!!!!!!!!!!",
"!!!!!!!!!!!!==*.141.1.1111.11OOX..###.......#######&&&&!!!!!!!!!",
"!!!!!!!!!!!!!!URT111..111....>>>..eeww.....$$$$$$$wwwwweer!!!!!!"
};
