/* XPM */
static char *enemi00[] = {
/* columns rows colors chars-per-pixel */
"64 64 103 2 ",
"   c #020202",
".  c gray1",
"X  c #03031C",
"o  c #02023F",
"O  c #03033F",
"+  c #202020",
"@  c #2C2C2C",
"#  c gray19",
"$  c #313131",
"%  c #343434",
"&  c #373737",
"*  c gray22",
"=  c #393939",
"-  c #400303",
";  c #7C0303",
":  c #402F18",
">  c #403018",
",  c #483818",
"<  c #493919",
"1  c #5C4020",
"2  c #744D27",
"3  c #744C28",
"4  c #020240",
"5  c #030340",
"6  c #020241",
"7  c #03034C",
"8  c #02024D",
"9  c #030358",
"0  c #030364",
"q  c #02026F",
"w  c #03036F",
"e  c #020270",
"r  c #030370",
"t  c #03037C",
"y  c #034040",
"u  c #035858",
"i  c #037070",
"p  c #037474",
"a  c gray25",
"s  c #484848",
"d  c #4B4B4B",
"f  c #4C4C4C",
"g  c gray33",
"h  c #646464",
"j  c gray44",
"k  c #80502C",
"l  c #915C33",
"z  c #905C34",
"x  c #9F633C",
"c  c #A0643C",
"v  c #FC7803",
"b  c #A86840",
"n  c #B47044",
"m  c #BC7848",
"M  c #9C9C02",
"N  c #9C9C03",
"B  c #B4AC03",
"V  c #FC8820",
"C  c #CCC403",
"Z  c #E4D803",
"A  c #FCF402",
"S  c #FCF403",
"D  c #D08050",
"F  c #DC8854",
"G  c #FC9840",
"H  c #E88C58",
"J  c #F0945C",
"K  c #FCA85C",
"L  c #FC9C60",
"P  c #FCA470",
"I  c #FCFC54",
"U  c #020288",
"Y  c #030388",
"T  c #020289",
"R  c #030389",
"E  c #030398",
"W  c #0202A3",
"Q  c #0202A4",
"!  c #0303A4",
"~  c #0303A8",
"^  c #0303AF",
"/  c #0303B0",
"(  c #0303BC",
")  c #0303C8",
"_  c #0303D4",
"`  c #0303E0",
"'  c #980387",
"]  c #980288",
"[  c #980388",
"{  c #980488",
"}  c #038484",
"|  c gray55",
" . c #989898",
".. c gray66",
"X. c #FCB080",
"o. c #FCB890",
"O. c #FCBC9C",
"+. c #FCC4A4",
"@. c #FCD4BC",
"#. c #C0C0C0",
"$. c gainsboro",
"%. c #FCE0D0",
"&. c None",
/* pixels */
"&.&.&.&.&.&.&.&.&.&.&.&.&.&.&.&.&.&.&.&.&.&.&.&.&.A I I I I I I I I I I Z Z Z B &.&.&.&.&.&.&.&.&.&.&.&.&.&.&.&.&.&.&.&.&.&.&.&.",
"&.&.&.&.&.&.&.&.&.&.&.&.&.&.&.&.&.&.&.&.&.&.&.&.&.A S I I I I I S S Z Z Z C B N &.&.&.&.&.&.&.&.&.&.&.&.&.&.&.&.&.&.&.&.&.&.&.&.",
"&.&.&.&.&.&.&.&.&.&.&.&.&.&.&.&.&.&.&.&.&.&.&.&.&.S S S S S S S Z C C C C B B N &.&.&.&.&.&.&.&.&.&.&.&.&.&.&.&.&.&.&.&.&.&.&.&.",
"&.&.&.&.&.&.&.&.&.&.&.&.&.&.&.&.&.&.&.&.&.&.&.&.&.v S S S S S S Z C C C C B B v &.&.&.&.&.&.&.&.&.&.&.&.&.&.&.&.&.&.&.&.&.&.&.&.",
"&.&.&.&.&.&.&.&.&.&.&.&.&.&.&.&.&.&.&.&.&.&.&.&.&.v S P P P S S Z C C P P J N v &.&.&.&.&.&.&.&.&.&.&.&.&.&.&.&.&.&.&.&.&.&.&.&.",
"&.&.&.&.&.&.&.&.&.&.&.&.&.&.&.&.&.&.&.&.&.&.&.&.&.V P P J J J P P P J J J J F V &.&.&.&.&.&.&.&.&.&.&.&.&.&.&.&.&.&.&.&.&.&.&.&.",
"&.&.&.&.&.&.&.&.&.&.&.&.&.&.&.&.&.&.&.&.&.&.&.&.&.V P P P P P H F H P P P J F V &.&.&.&.&.&.&.&.&.&.&.&.&.&.&.&.&.&.&.&.&.&.&.&.",
"&.&.&.&.&.&.&.&.&.&.&.&.&.&.&.&.&.&.&.&.&.&.&.&.n G +.c 1 b F P P P F b 1 c D G l &.&.&.&.&.&.&.&.&.&.&.&.&.&.&.&.&.&.&.&.&.&.&.",
"&.&.&.&.&.&.&.&.&.&.&.&.&.&.&.&.&.&.&.&.&.&.&.&.k K +.#.E / ; D n z ; / E ..D K 2 &.&.&.&.&.&.&.&.&.&.&.&.&.&.&.&.&.&.&.&.&.&.&.",
"&.&.&.&.&.&.&.&.&.&.&.&.&.&.&.&.&.&.&.&.&.&.&.&.n F P +.X.L L P X.m H H H L D n z &.&.&.&.&.&.&.&.&.&.&.&.&.&.&.&.&.&.&.&.&.&.&.",
"&.&.&.&.&.&.&.&.&.&.&.&.&.&.&.&.&.&.&.&.&.&.&.&.. F D o.+.+.X.D D c P O.O.L n n . &.&.&.&.&.&.&.&.&.&.&.&.&.&.&.&.&.&.&.&.&.&.&.",
"&.&.&.&.&.&.&.&.&.&.&.&.&.&.&.&.&.&.&.&.&.&.&.+ . F H H X.X.J J J J J P J n D n . + &.&.&.&.&.&.&.&.&.&.&.&.&.&.&.&.&.&.&.&.&.&.",
"&.&.&.&.&.&.&.&.&.&.&.&.&.&.&.&.&.&.&.&.&.&.&.. * D P D J P @.@.@.@.@.P F c D 3 . . &.&.&.&.&.&.&.&.&.&.&.&.&.&.&.&.&.&.&.&.&.&.",
"&.&.&.&.&.&.&.&.&.&.&.&.&.Y Y Y Y Y Y 0 . {  .. f # P D J P %.%.%.%.%.P F n D . . .  .{ . 0 R Q Y Y Y Y &.&.&.&.&.&.&.&.&.&.&.&.",
"&.&.&.&.&.&.&.&.&.&.&./ _ ~ Y Y Y . . 7 0 g g . . . F P J J J P P P J J F D z . . . g g 0 5 . . Y Y Y ~ _ ^ &.&.&.&.&.&.&.&.&.&.",
"&.&.&.&.&.&.&.&.&.&.Y Y Q Y ( Y . . . 0 Y t t t . . z P P P P H D H P P F b 1 . . t t Q Y 0 . . . Y ( Y ! Y R &.&.&.&.&.&.&.&.&.",
"&.&.&.&.&.&.&.&.&.r r Y Y ~ ( 5 . . 7 t Y Y Y Y . . 5 z n b c z 3 z k k k 3 7 . . ! ! ! ! t 7 . . 8 ( ~ Y Y r r &.&.&.&.&.&.&.&.",
"&.&.&.&.&.&.&.&.0 0 r t Y ( r . . . Y / ~ ! ! ! 9 9 5 r 0 7 1 k k k 1 1 7 7 5 7 ~ ! ! ! / ! t . . . r ( Y t r 0 0 &.&.&.&.&.&.&.",
"&.&.&.&.&.&.&.0 t ( ` _ / ) 7 . . r ~ / ~ Y Y ! ~ r 0 9 0 r 0 0 9 7 7 7 7 5 0 ~ ~ ~ ~ ~ / / Y 7 . . 8 ( / _ ` ( t 0 &.&.&.&.&.&.",
"&.&.&.&.&.&.Q ~ t 7 7 7 t ( 7 . . r ~ / $.! ! ! ~ ! Y Y t t t 5 0 Y ! ~ ~ ~ / / ~ ~ ~ | | / ! 7 . . 8 ( Y 7 7 7 t ~ Q &.&.&.&.&.",
"&.&.&.&.&.Q 0 . . . . . . . . . 5 t ! ! ! ! ! ! ~ ! ! ! Y Y Y 7 0 / ! ! ! ! ! ! ~ ~ ~ ~ ~ ~ ~ Y t t t ! ! . . . . . 0 &.&.&.&.&.",
"&.&.&.&.&.r . 0 0 0 0 5 5 5 5 5 5 0 ! ! ! ! ! ! ! ! ! ! ! ! ! r r ! ! ! ! ! ! ! ! ! ! ! ! Q ! * } p * * 5 O 5 t Y 0 5 5 &.&.&.&.",
"&.&.&.&.0 . r Y Y Y * * p p } p + 0 0 r r r r r r r r r r r r 7 r Y r r r r r r r r r r r * * } + + u y y p u # Y ~ 0 . &.&.&.&.",
"&.&.&.&.[ Y Y Y * * * * p . . . u * 0 t r 0 j 0 r r r r r r r 7 r Y r r r r r r r f g r * * * p + * u y + + * i # ) Y 5 &.&.&.&.",
"&.&.&.&.Y ~ Y * * * + + p y . y + + + 0 t 5 * 5 r r r r r r r 7 r Y r r r r r r r * * * } p + + u u y u } p y + u # / 5 &.&.&.&.",
"&.&.&.&.Y ( Y * * p } p y p u + * p } p 0 r r r r r r r r r r 7 r Y r r r r r r r r r } + + u y + + + } + + u y u y # t &.&.&.&.",
"&.&.&.&.~ Y * * p } . . u + + + u } . . u 5 5 5 5 5 5 5 5 5 . + + . 5 5 5 5 5 5 5 5 * p + * u y u u + p + * u y u y # Y &.&.&.&.",
"&.&.&.&.) r * * p p . . y } u u u p . . y . . . . . . . . + # a a a # . . . . . . - - + u u y u . . u + u u y + + y y # 5 &.&.&.",
"&.&.&.&.~ 0 * + y u u y + u . . u u u y + + + + + + + + + + # f f f + + + + # # # # # + + + + u . . u + + + + + + y y # 5 &.&.&.",
"&.&.&.&.. . * + + + + + + u . . u + + + + # # f g g g g g f # h h g * g g g a a % % - + } p y + u u + + } p y + + y # # &.&.&.&.",
"&.&.&.. . Q * + y u } p + + u u + u } p + # # * * * * * * * # h h g * * * * # # # % + } + + u y + + + } + + u y + # # 0 &.&.&.&.",
"&.&.&.0 Y 0 * + u } . . u + + + u } . . u # # + + + + # # * * h h g * # # + + + + # . p + * u y } p y p + * u y # # # . &.&.&.&.",
"&.&.&.W 0 7 + + u p . . y u } p u p . . y a * * * * * * f f f f f f f f f * a a * + + * u u y } + + u y u u y + # # R 0 &.&.&.&.",
"&.&.&.&.7 8 r + y u u y u } . . u u u y + # a a a a a f f f f f f f f f a a f * # # % # + + + p + * u y + + + # 0 r r &.&.&.&.&.",
"&.&.&.&.7 7 r r + + + + u p . . y + + [ { + 7 7 7 7 # * f f f f f f f f # # # . . . . . . + + + u u y + + + 5 . r q &.&.&.&.&.&.",
"&.&.&.&.&.7 ( . b 3 + y y u + + + + w Y Y R ~ ~ ~ ~ ( t 5 + # # # # # + . . 5 0 0 0 0 0 5 . 7 + , , , > 1 > 0 r 5 &.&.&.&.&.&.&.",
"&.&.&.&.&.&.r . m m 1 + + + + + [ r r R Y Y Y ! Y 5 5 0 t t . + + + + . 5 0 0 r Y Y Y r r 0 + r 3 3 3 3 1 > 5 &.&.&.&.&.&.&.&.&.",
"&.&.&.&.&.&.&.&.b m c c z c &.&.r r Y Y ! / / ! Y r 0 5 5 0 t . + + . 5 5 . . 5 X X X X 5 5 X 5 c 3 3 , > &.&.&.&.&.&.&.&.&.&.&.",
"&.&.&.&.&.&.&.&.&.&.x x &.&.&.&.w Y Y ! ! / ! Y Y 0 0 0 5 5 5 5 . . 5 5 . 7 0 0 0 r r 0 0 0 7 7 7 &.&.&.&.&.&.&.&.&.&.&.&.&.&.&.",
"&.&.&.&.&.&.&.&.&.&.&.&.&.&.&.r r Y Y ! / / ! Y r 0 0 5 5 5 . 0 . . 5 X 5 7 0 0 r r r 0 0 0 7 7 5 * &.&.&.&.&.&.&.&.&.&.&.&.&.&.",
"&.&.&.&.&.&.&.&.&.&.&.&.&.&.&.r r R ! ! / ! ! R r 0 0 5 5 g 5 0 . . 7 5 5 7 0 0 0 r 0 0 0 0 7 7 5 * &.&.&.&.&.&.&.&.&.&.&.&.&.&.",
"&.&.&.&.&.&.&.&.&.&.&.&.&.&.&.r Y Y ! / / ! Y Y r 0 5 5 5 g  .&.&.{ 5 5 5 7 0 0 0 0 0 0 0 0 7 7 5 5 &.&.&.&.&.&.&.&.&.&.&.&.&.&.",
"&.&.&.&.&.&.&.&.&.&.&.&.&.&.r r Y ! ! / ! ! Y w 0 0 5 5 5 5 5 &.&.&.7 7 7 7 7 0 0 0 0 0 0 7 7 7 5 * . &.&.&.&.&.&.&.&.&.&.&.&.&.",
"&.&.&.&.&.&.&.&.&.&.&.&.&.&.r r Y ! ^ / ! Y R r 0 5 5 5 . r &.&.&.&.* f f 7 7 7 0 0 0 0 7 7 7 7 5 * . &.&.&.&.&.&.&.&.&.&.&.&.&.",
"&.&.&.&.&.&.&.&.&.&.&.&.&.&.r r R ! / ! ! Y w 0 0 O 5 $. .&.&.&.&.&.&.* f 8 7 7 7 7 7 7 7 7 7 7 5 5 . 5 &.&.&.&.&.&.&.&.&.&.&.&.",
"&.&.&.&.&.&.&.&.&.&.&.&.&.&.t ! ) ) ) ) 0 t r 0 8 5 5 g r &.&.&.&.&.&.8 7 7 7 7 7 7 7 7 7 7 7 7 5 5 . X &.&.&.&.&.&.&.&.&.&.&.&.",
"&.&.&.&.&.&.&.&.&.&.&.&.&.) ~ R t t t t ! / ~ 5 0 t 5 0 &.&.&.&.&.&.&.&.* 5 7 7 7 7 7 7 7 7 7 7 5 . 5 X o &.&.&.&.&.&.&.&.&.&.&.",
"&.&.&.&.&.&.&.&.&.&.&.&.&.R ! t t t t t t ( 5 5 Y . . &.&.&.&.&.&.&.&.&.* 5 5 7 7 7 7 7 7 7 7 5 . . 5 X 5 &.&.&.&.&.&.&.&.&.&.&.",
"&.&.&.&.&.&.&.&.&.&.&.&.r Y Y ( ( ^ / ~ R 7 5 5 . . w &.&.&.&.&.&.&.&.&.&.t 5 5 5 5 5 5 5 5 . . . 5 X . &.&.&.&.&.&.&.&.&.&.&.&.",
"&.&.&.&.&.&.&.&.&.&.&.&.r r ! Q ! Y R w 0 O 5 X . . &.&.&.&.&.&.&.&.&.&.&.&.t . . . . . . . . 5 5 5 . . &.&.&.&.&.&.&.&.&.&.&.&.",
"&.&.&.&.&.&.&.&.&.&.&.&.r r Y ! ! Y R r 0 5 7 X . &.&.&.&.&.&.&.&.&.&.&.&.&.&.0 0 7 . . . 5 5 5 5 . . . &.&.&.&.&.&.&.&.&.&.&.&.",
"&.&.&.&.&.&.&.&.&.&.&.&.0 0 t t t t t t 0 . . . . &.&.&.&.&.&.&.&.&.&.&.&.&.&.&.X X . X X 5 X X . . . . &.&.&.&.&.&.&.&.&.&.&.&.",
"&.&.&.&.&.&.&.&.&.&.&.&.r Y ~ / / ! t 0 7 0 t 5 &.&.&.&.&.&.&.&.&.&.&.&.&.&.&.&.&.0 . . . . . . . . . &.&.&.&.&.&.&.&.&.&.&.&.&.",
"&.&.&.&.&.&.&.&.&.&.&.&.7 7 7 7 7 7 7 5 5 0 0 7 &.&.&.&.&.&.&.&.&.&.&.&.&.&.&.&.&.&.X . . . . . . . . &.&.&.&.&.&.&.&.&.&.&.&.&.",
"&.&.&.&.&.&.&.&.&.&.&.&.r r r r w 0 0 7 7 7 5 &.&.&.&.&.&.&.&.&.&.&.&.&.&.&.&.&.&.&.&.X . . . . . . 5 &.&.&.&.&.&.&.&.&.&.&.&.&.",
"&.&.&.&.&.&.&.&.&.&.&.&.r r r r 0 0 7 7 R  .&.&.&.&.&.&.&.&.&.&.&.&.&.&.&.&.&.&.&.&.&.0 . . . . . . 5 &.&.&.&.&.&.&.&.&.&.&.&.&.",
"&.&.&.&.&.&.&.&.&.&.&.&.r r r 0 0 7 7 5 j j &.&.&.&.&.&.&.&.&.&.&.&.&.&.&.&.&.&.&.&.&.5 5 5 5 5 . . . &.&.&.&.&.&.&.&.&.&.&.&.&.",
"&.&.&.&.&.&.&.&.&.&.&.&.7 7 7 7 5 5 5 5 5 &.&.&.&.&.&.&.&.&.&.&.&.&.&.&.&.&.&.&.&.&.&.t 0 0 0 . . . . 5 &.&.&.&.&.&.&.&.&.&.&.&.",
"&.&.&.&.&.&.&.&.&.&.&.! t t t t t t r 5 7 &.&.&.&.&.&.&.&.&.&.&.&.&.&.&.&.&.&.&.&.&.&.0 5 5 5 5 5 5 5 5 &.&.&.&.&.&.&.&.&.&.&.&.",
"&.&.&.&.&.&.&.&.&.&.&.! r r r r 0 0 0 t 5 &.&.&.&.&.&.&.&.&.&.&.&.&.&.&.&.&.&.&.&.&.&.5 5 5 5 5 5 5 5 5 [ &.&.&.&.&.&.&.&.&.&.&.",
"&.&.&.&.&.&.&.&.&.&.! r ! ! ! ! ! t t t 5 &.&.&.&.&.&.&.&.&.&.&.&.&.&.&.&.&.&.&.&.&.&.5 5 5 5 5 5 5 5 5 5 # # # # * * * * f f h ",
"&.&.&.&.&.&.&.&.&.&.! ! r r 0 0 0 t t 0 5 5 &.&.&.&.&.&.&.&.&.&.&.&.&.&.&.&.d f * * * * * * # # # # # # # # # # # * f f g g &.&.",
"&.&.&.&.&.&.&.&.&.&.! r ! ! t t t 0 t 0 0 g g g g f f f f * * # # # # # # # # # # # # # # # # # # # # # # &.&.&.&.&.&.&.&.&.&.&.",
"&.&.&.&.&.&.&.&.&.&.E r E E t t t 9 t 0 9 @ @ @ @ @ * * * * * * * s s s g h h [ [ &.&.&.&.&.&.&.&.&.&.&.&.&.&.&.&.&.&.&.&.&.&.&."
};
